# xmcd
#
# Track frame offsets: 
#        183
#        10405
#        22510
#        36668
#        48548
#        59415
#        69148
#        82510
#        91655
#        108298
#        117110
#        130128
#        145423
#        161663
#        170130
#        181163
#        195538
#        207573
#
# Disc length: 2934 seconds
#
# Revision: 0
# Processed by: cddbd v1.5.2PL0 Copyright (c) Steve Scherf et al.
# Submitted via: ExactAudioCopy v0.95b4
#
DISCID=eb0b7412
DTITLE=Various Artist - Country Classics
DYEAR=1995
DGENRE=Country
TTITLE0=Jimmie Rodgers - Oh-O I'm Fallin In Love Again
TTITLE1=Billy Joe Spears - Look What They Done To My Song Ma
TTITLE2=B.J. Thomas - I'd  Rather Be Lonely
TTITLE3=Justin Tubb - Lodi
TTITLE4=Conway Twitty - The Hurt In My Heart
TTITLE5=Faron Young - Country Girl
TTITLE6=Carl Belew - Welcome Back To My World
TTITLE7=Dorsey Burnette - Together Again
TTITLE8=Ace Cannon -  Me And Bobby McGee
TTITLE9=Mac Davis - Why Can't I Be Like The Others
TTITLE10=Mickey Gilley - C C Rider
TTITLE11=Merle Haggard - Mule Skinner Blues
TTITLE12=Jan Howard - The Wedding Song
TTITLE13=Burl Ives - Big Rock Candy Mountain
TTITLE14=Waylon Jennings - Dream Baby
TTITLE15=Johnny Lee - Gentle On My Mind
TTITLE16=Hank Locklin - Queen Of Hearts
TTITLE17=The Oakridge Boys - You'll Never Walk Alone
EXTD=
EXTT0=
EXTT1=
EXTT2=
EXTT3=
EXTT4=
EXTT5=
EXTT6=
EXTT7=
EXTT8=
EXTT9=
EXTT10=
EXTT11=
EXTT12=
EXTT13=
EXTT14=
EXTT15=
EXTT16=
EXTT17=
PLAYORDER=
